<svg width="247" height="339" viewBox="0 0 247 339" fill="none" xmlns="http://www.w3.org/2000/svg">
<circle cx="28" cy="270" r="27.5" fill="#F1D7D7" stroke="#FFFCFC"/>
<circle cx="124.5" cy="242.5" r="96" fill="#F1D7D7" stroke="#FFFCFC"/>
<path d="M80.9527 50.5522C89.6863 40.1766 97.1223 35.5533 124.801 34.0845C143.522 35.0974 153.345 38.9157 169.867 50.5522C173.38 25.4725 183.031 18.1315 200.318 5.10138C242.426 -6.15145 251.089 4.72363 243.557 50.5522C233.342 69.1971 223.353 76.4495 200.318 85.4636C204.704 107.605 205.997 119.809 200.318 140.136C179.134 161.118 164.442 170.915 124.801 179C86.5574 166.041 68.4125 158.133 55.9835 140.136C49.6023 121.743 50.7671 109.233 55.9835 85.4636C28.7532 78.8368 15.0936 73.399 3 50.5522C5.65649 10.6415 20.4628 4.62889 55.9835 5.10138L80.9527 50.5522Z" fill="#F1D7D7" stroke="#FFFCFC"/>
<ellipse cx="160.5" cy="99.5" rx="11.5" ry="14.5" fill="#FFFCFC"/>
<ellipse cx="160.5" cy="102.5" rx="8.5" ry="10.5" fill="#575353"/>
<path d="M108 131C115 148 131 131 131 131C137.232 136.878 141.535 139.162 159 131" stroke="#575353"/>
<path d="M127 123L132 131L139 123" stroke="#575353"/>
<ellipse cx="98" cy="96.5" rx="14" ry="17.5" fill="#FFFCFC"/>
<ellipse cx="98" cy="100" rx="10" ry="13" fill="#575353"/>
<path d="M21 58C32.3163 66.9122 43.7298 69.5801 67 73L78 66L53 23C11.7922 23.0063 15.9627 35.9881 21 58Z" fill="#D6BDBD"/>
</svg>
