<svg xmlns="http://www.w3.org/2000/svg" viewBox="0 0 589.61 240.94"><defs><style>.cls-1{fill:#9e9280;}.cls-2{fill:#e5646e;}.cls-3{fill:#fedb64;}.cls-4{fill:#bde76e;}.cls-5{fill:#02ccfd;}.cls-6{fill:#01a9ef;}.cls-7{fill:#955bef;}.cls-8{fill:#eddad6;}.cls-9{fill:#fff;}.cls-10{fill:#cfb2aa;}.cls-11{fill:#a04e38;}.cls-12{fill:#ffb850;}.cls-13{fill:none;stroke:#000;stroke-miterlimit:10;}</style></defs><title>design</title><g id="Layer_4" data-name="Layer 4"><polygon class="cls-1" points="463.92 203.84 452.96 212 456.37 225.23 445.21 217.34 433.68 224.67 437.75 211.62 427.21 202.92 440.88 202.75 445.9 190.04 450.28 202.99 463.92 203.84"/><polygon class="cls-1" points="189.86 25.27 184.73 25.61 183.1 30.49 181.19 25.71 176.05 25.67 180 22.38 178.45 17.47 182.81 20.21 186.99 17.23 185.73 22.21 189.86 25.27"/><polygon class="cls-1" points="219.84 116.35 208.47 115.9 203.75 126.25 200.66 115.3 189.36 114.01 198.82 107.69 196.56 96.54 205.49 103.59 215.39 97.99 211.45 108.66 219.84 116.35"/><polygon class="cls-1" points="507.81 200.86 504.22 208.61 510.03 214.87 501.55 213.85 497.4 221.31 495.75 212.93 487.37 211.28 494.83 207.12 493.81 198.64 500.07 204.45 507.81 200.86"/><polygon class="cls-1" points="535.15 200.63 531.52 202.6 531.79 207.37 528.98 203.85 525.24 205.49 527.13 201.34 524.54 197.59 528.51 198.55 530.66 194.58 531.23 199.33 535.15 200.63"/><polygon class="cls-1" points="549.55 208.96 552.62 215.15 559.82 214.75 554.56 219.49 557.13 225.88 550.81 222.62 545.19 226.98 546.55 220.22 540.51 216.52 547.67 215.61 549.55 208.96"/><polygon class="cls-1" points="119.83 186.85 87.03 185.56 73.4 215.43 64.5 183.83 31.88 180.1 59.18 161.87 52.65 129.69 78.42 150.02 107 133.87 95.63 164.67 119.83 186.85"/><path class="cls-1" d="M502.4,68.9c.14-.1.08-.27.14-.4a1.59,1.59,0,0,1,2.26-.75c1.12.58,2.24,1.14,3.4,1.63a37.77,37.77,0,0,0,32.88-1.84,34.66,34.66,0,0,0,16.06-18.82A33.16,33.16,0,0,0,559,35.08a33.57,33.57,0,0,0-2.75-11.28,2.46,2.46,0,0,1-.24-.69,1.44,1.44,0,0,1,.69-1.47,1.58,1.58,0,0,1,1.7,0,38.59,38.59,0,0,1,4.15,2.61,37.61,37.61,0,0,1,15.2,22.9,35.58,35.58,0,0,1,.51,12.47,37,37,0,0,1-13.59,24.25,39.42,39.42,0,0,1-20,8.69,37.06,37.06,0,0,1-5.47.37c-.09,0-.19-.05-.24.06l-4.61-.26c-.06-.15-.2-.09-.3-.1a41.36,41.36,0,0,1-7.55-1.66,39.16,39.16,0,0,1-19-13.14,33.91,33.91,0,0,1-5.1-8.68Z" transform="translate(0 0)"/><polygon class="cls-1" points="435.6 17.02 448.82 12.09 458.39 22.45 457.78 8.36 470.59 2.45 461.76 0 438.75 0 442.5 4.72 435.6 17.02"/><polygon class="cls-1" points="132.25 104.66 124.2 95.94 113.08 100.09 118.88 89.74 111.5 80.45 123.14 82.77 129.69 72.87 131.08 84.66 142.52 87.83 131.74 92.8 132.25 104.66"/><polygon class="cls-1" points="168.26 61.62 165.37 62.4 164.99 65.37 163.36 62.86 160.42 63.42 162.3 61.09 160.86 58.46 163.66 59.53 165.71 57.35 165.55 60.34 168.26 61.62"/><polygon class="cls-1" points="79.36 75.46 79.66 67.93 72.81 64.81 80.06 62.76 80.91 55.28 85.09 61.54 92.48 60.04 87.81 65.96 91.52 72.52 84.45 69.91 79.36 75.46"/><polygon class="cls-1" points="22.14 116.34 22.61 104.48 11.81 99.56 23.24 96.34 24.59 84.55 31.18 94.42 42.81 92.05 35.46 101.37 41.3 111.7 30.16 107.59 22.14 116.34"/><polygon class="cls-1" points="43.04 42.7 37.24 44.25 36.48 50.21 33.21 45.18 27.31 46.3 31.09 41.63 28.2 36.37 33.8 38.52 37.91 34.14 37.6 40.14 43.04 42.7"/></g><g id="Layer_3" data-name="Layer 3"><path class="cls-2" d="M44,240.94c49.27-89.33,270.37-148.2,545.6-138.64V83.63l-6.15-.39c-1.69,1-4.78.58-7.47.51-25.86-.71-51.61-1.07-77.08-.68C251.76,86.8,59.83,141.67,0,224.8v16.14Z" transform="translate(0 0)"/><path class="cls-3" d="M44,240.94H98.34c52.25-78.32,248.53-128.14,491.27-120.51V102.3C314.38,92.74,93.28,151.61,44,240.94Z" transform="translate(0 0)"/><path class="cls-4" d="M98.34,240.94h54.84a99,99,0,0,1,17.33-17q107.82-83.58,379-85.81c13.3-.1,26.68.36,40.07.88V120.43C346.87,112.8,150.59,162.62,98.34,240.94Z" transform="translate(0 0)"/><path class="cls-5" d="M170.51,223.94a99,99,0,0,0-17.33,17h56.14C262.07,186.6,415,151,589.61,157.12V139c-13.39-.52-26.77-1-40.07-.88Q278,140.15,170.51,223.94Z" transform="translate(0 0)"/><path class="cls-6" d="M209.32,240.94h57.85a176.84,176.84,0,0,1,30.45-18.85c59.4-29.75,144.19-45.39,252.6-47.22,13-.22,26.16-.2,39.39.17V157.12C415,151,262.07,186.6,209.32,240.94Z" transform="translate(0 0)"/><path class="cls-7" d="M550.22,174.87c-108.41,1.83-193.2,17.47-252.6,47.22a176.84,176.84,0,0,0-30.45,18.85h61.77c51.29-31.63,148.93-49.73,260.67-47.33V175C576.38,174.67,563.25,174.65,550.22,174.87Z" transform="translate(0 0)"/></g><g id="Layer_1" data-name="Layer 1"><path d="M488.22,58.05c-4.07,3.5-8.43,6.51-13.74,8.12-7.87,2.38-15.63,5.14-23.4,7.84a9.69,9.69,0,0,0-4.24,2.39c-3.4,4.09-6.43,8.49-9.77,12.64-2.17,2.7-4.21,5.87-7.06,7.58-5.17,3.08-10.94,5.13-16.37,7.79s-11.08,4.49-14.1,10.74c-1.89,3.91-4.72,7.39-5.94,11.71a2.71,2.71,0,0,1-1.64,1.32,20.27,20.27,0,0,1-3.45.78c-3.64.62-7.28,1.21-10.43,1.73.4-4.53,1.11-8.73,1.05-12.92a172.3,172.3,0,0,0-1.21-18.45c-.67-5.41-1.33-11-5.38-15.28l-5.81-6.15c4.18-.54,8.07-1,11.95-1.54,5.08-.71,10.27-1,15.18-2.32,6.69-1.81,13.18-4.36,19.7-6.74,3.4-1.24,6.62-2.81,7.94-6.67,2.17-6.41-1.63-14.91-8.16-16.67a24.32,24.32,0,0,0-10.23-.05A102.18,102.18,0,0,0,387.51,48c-3.15,1.09-5.85,3.41-8.89,4.89-4.93,2.4-10.45,3.71-14.38,7.94-.33.36-1,.36-2.08.68.3-1.21.48-2,.7-2.81.82-3.09,2-6.14,2.38-9.29.42-3.57,0-7.23.14-10.84a22.62,22.62,0,0,0-3.18-12.75,89.69,89.69,0,0,0-10.09-13.46A16.45,16.45,0,0,0,340,7.06c-9.24-.21-18.5-.28-27.74.05-3.64.14-7.82.64-10.7,2.55a37.13,37.13,0,0,0-9.63,10.07c-2.61,3.82-4.19,8.36-6.17,12.61a6.33,6.33,0,0,0-.57,2.26c-.44,7.75-.83,15.51-1.22,23.27-.05,1,0,2,0,3-2.06-1.09-3.71-2.09-5.46-2.86-5.49-2.4-10-6.44-15.89-8.4-6.77-2.27-13.45-4.49-20.64-4.57-3.17,0-6.51,3.26-6.88,6.3-1,7.91,2.65,13.61,8.84,17.84a27.36,27.36,0,0,0,8,3.51c7.82,2.19,15.71,4.16,23.61,6.08,3.28.8,6.63,1.28,10.14,1.94-4.62,4.65-7,14.5-7.11,20.82-.19,11.38,0,22.76,3.08,33.81H276.7v-2.94c-2.2.24-4.26.46-6.31.7a3.69,3.69,0,0,0-1.44.25c-2.81,1.68-2.8,1.7-5.3,1.24,5.35-6.5,11.1-12.88,14.42-21.71-2.24.83-3.89,1.78-5.65,2-4.82.7-7.26,1.86-7.28,6.72,0,5.91-3.26,7.36-7.69,8.74-2.95.91-5.71,3.18-8.63,3.32-8.51.41-17,0-25.58,0a11.32,11.32,0,0,0-4.9.86c-5.93,2.91-12.12,2.13-18.34,1.81-5.23-.28-10.49-1.2-15.66.83-6.43,2.54-13.07,2.25-20.24.77,1.72-1.63,3.24-3,4.63-4.41,3-3.1,2.26-7.06,2.47-10.83a6.35,6.35,0,0,1,1.36-4c4.34-4.28,5.66-9.26,4.09-15.83-3.11,3-6.17,5.47-8.67,8.45-1.13,1.34-1.4,3.57-1.6,5.45a48.45,48.45,0,0,0,0,7.23c.12,3.15-1.17,5.29-3.7,7.27-3.2,2.47-6,5.47-6.08,10.06,0,.85-1.19,1.81-2,2.47-1.64,1.3-3.9,2.05-3.75,4.73l-4.17,2.53a47.24,47.24,0,0,1-2.47-6.06,3.22,3.22,0,0,1,1.25-2.7c7.57-4.72,8.35-8.4,7.3-17.43-.26-2.24-2-5,.42-6.89,1.44-1.14,3.45-1.56,5.93-2.61-.76-1.21-1.31-3.18-2.23-3.37-8.14-1.71-16.75,7.08-14.34,14.58.84,2.62,1.2,6.26,0,8.48-2.4,4.49-5.41,8.32-5.48,14-.05,5.21-.12,10.19,2,15a6.08,6.08,0,0,1,.31,3.94c-1.34,4.26-3,8.43-4.68,13.14a27.44,27.44,0,0,1-3-1.71c-4.49-3.48-6.06-8.57-7.64-13.72-.73-2.41-.77-4.39,1-6.35a5,5,0,0,0,.8-2.71c.28-2.86,0-5.83.72-8.59,1.07-4.33,2.73-8.53,4.14-12.79l1.23.32c-.59,5.62.95,11.24-1.5,16.9-1.61,3.71-3.81,7.91-.91,12.1.64.93,1.8,6.48,6.09,7.89a6.73,6.73,0,0,0,2.23.33,18.31,18.31,0,0,1-6.41-7.58c-1.32-2.95-2.16-5.63-1.52-7.15,2.31-5.52,3.81-11.19,3.26-17.32-.27-3-1.14-6.43,3.57-7.71-2.61-1.11-6.66.82-7.68,3.18-2.62,6.09-4.78,12.29-4.47,19.12a6.92,6.92,0,0,1-1.29,4.33,9.52,9.52,0,0,0-.71,10.91c2.34,4.26,6.15,7.7,9.28,11.53.53.66,1.22,1.63,1.09,2.32-.5,2.58-1.28,5.12-2,7.66-1,3.6-.48,5.92,2.26,7.21a43.79,43.79,0,0,0,9.31,3.53c3.66.76,7.5.69,11.69,1l-4.75,7.68-2.09-2.68-.67.34c.46,2.06.91,4.11,1.47,6.64h-8.14l-.2,1.3,10.28,3v6.9l.81.26a21.47,21.47,0,0,1,1.44-1.83c1.9-1.93,3.9-3.75,5.73-5.73s3-.85,4.13.59c1.38,1.69,3,2.58,5.48,1.43-.93-2.38-1.72-4.8-2.84-7.06a3,3,0,0,1,.19-3.67c1.55-2.11,2.83-4.42,4.75-7.47,11.53,0,23.75.08,36,0q15.78-.14,31.54-.63A58.89,58.89,0,0,0,248,201.72a37.46,37.46,0,0,0,9.14-3.15c6.3-3.27,13.17-3.11,19.89-4,3.27-.46,4.71,1.51,6.36,3.66,2.37,3.07,4.91,6,7.36,9l-14,9.13.35.58,13.64-2.19c.16,1.53.21,2.89.45,4.21a49.53,49.53,0,0,0,1.18,5.13c.15.5.77.87,1.17,1.3.42-.4,1.05-.72,1.25-1.21,1.25-3.14,2.42-6.31,3.71-9.72,2.72,2.29,4.48,5.3,8.2,5.55,3.29.22,4.28-.83,3.07-3.82-.33-.81-1.05-1.46-1.39-2.27-.68-1.63-1.24-3.31-2-5.33,5.87,0,11-.08,15.56-3.53a119.74,119.74,0,0,0-13.05-3.18c-.9-.19-2.21-.16-2.6-.73-1.75-2.56-3.24-5.3-5-8.33,13.23-.88,25.7-2.57,37.42-9.1.18,5.46,3.77,6,7.32,7,.29,2.81.58,5.66.91,8.78,3.32-.22,2.58-4.22,4.34-5l5.24,3.83c.56-2.29.95-3.85,1.21-4.89h6.46l-4.06-4.61,4.83-.71c-3.47-4.41-10.09-2.08-12.47-6.81l26.69-8.86c1.08,4.87,5.33,5.82,9,7.75,2.18,1.15,4.72,2.87,5.57,4.95,1,2.57.49,5.78.68,9.79l4.6-4.33c.9,5.44,1.07,5.23,5.63,5.56V187l5.39,3.63,1.07-.79-2.08-8.1,7-1.22.06-.76a112.32,112.32,0,0,1-10.49-4.52c-3.48-1.92-6.64-4.43-10.71-7.22,5-1.3,9.39-2.79,13.91-3.52,4.1-.67,8.4-.15,12.51-.79,5.81-.91,11.82-1.67,17.19-3.86,5.1-2.08,9.53-5.86,14.16-9,2.71-1.86,5.62-3.63,7.8-6,6.35-7,12.46-14.14,18.49-21.38,2.58-3.09,5.41-6.25,6.92-9.88a84.31,84.31,0,0,0,4.55-16.07c1.44-7.34,2.37-14.79,3.4-22.21.42-2.94.51-5.93.79-8.9.48-5.29,1-10.59,1.52-16.23C493.15,53.14,490.85,55.79,488.22,58.05ZM361,69.22c2.71-1.34,5.65-2.27,8.21-3.84,7.46-4.6,15.73-6.85,24.1-9,5.65-1.42,11.19-3.34,16.85-4.77a21.41,21.41,0,0,1,6.74-.4c2,.14,2.76,1.4,2.8,3.65.09,5.64-.55,8.09-7.42,11.1a119.55,119.55,0,0,1-25.73,7.82c-4.75.91-9.64,1.1-16.2,1.8C368.2,75,364.56,74,361,72.87c-.52-.18-.95-1.33-1-2.06A2.08,2.08,0,0,1,361,69.22Zm-91.77,7.45c-6.11-1-12-3.55-17.92-5.46-5.64-1.81-10.69-4.65-13.52-10-1.44-2.73-1.86-6-2.65-8.7C258.4,51.34,275,62.9,290.06,77.6c0,0-.2.4-.37.39C282.86,77.63,275.93,77.83,269.24,76.67ZM280.48,128c-.86-8-1.17-16.1-1.32-24.16-.11-5.92,1.61-11.57,3.49-17.17,1.35-4,5-5.47,7.75-7.89.69-.59,1.46-1.88,1.25-2.56-.62-2-1.28-4.35-2.7-5.8-2.95-3-3.89-6.47-3.84-10.47.06-4.52-.1-9,0-13.57.21-6.82.54-13.66,4.81-19.5a2.46,2.46,0,0,0,.42-.78c.61-2.55,1.07-5.63,3.9-6.28,4.8-1.11,9.34.29,11.84,4.74C308,28,310,31.89,310.07,35.64c.13,5.59,3.55,6.75,7.53,7.71a76,76,0,0,0,8.18,1.18C327,39,327.7,34,329.29,29.27a25.18,25.18,0,0,1,5.24-8.22,5.75,5.75,0,0,1,4.85-1.21c3.35.88,6.8,1.92,9.07,5,.53.73,1.75.94,2.65,1.39,4.27,2.14,5.07,6.24,5.77,10.35,1,5.74.11,11.37-1.18,17a4,4,0,0,1-.53,1.36c-2.92,4.26-2.36,9.27-3.13,14-.39,2.39-1.15,4.73-1.79,7.29,6.15,2.8,10.12,8.25,12.8,14.59a26.43,26.43,0,0,1,2.18,10c0,7,0,14-1.28,20.83-1.23,6.52-4,12.73-10.47,16.29-2,1.11-3.53,3.22-5.6,4.1-5.81,2.45-12,1.11-18.06,1.17a5.46,5.46,0,0,1-3.54-2c-2.39-2.82-5.68-2.69-8.85-3.41-8.32-1.9-16.75-1.48-25.16-1.79-2.64-.1-5.73-.08-7.74-1.42A10.27,10.27,0,0,1,280.48,128Zm58.73,32.8V146.53c6.72,2.35,13,1.92,19.78-.88-.78,4.18-1.4,7.43-2.16,11.46l-3.26-4.69c-.81,1.86-1.41,3.34-2.08,4.79a11.09,11.09,0,0,1-1.67,3,2.91,2.91,0,0,1-2.47.77,3,3,0,0,1-1.26-2.21c-.18-1.87,0-3.76,0-6.3C342.61,155,344.39,160.86,339.21,160.78Zm-69.7-26.17h5.32c-2.59,3.55-5.42,7.35-8.16,11.21a15.37,15.37,0,0,0-2.1,3.8,6.08,6.08,0,0,1-5.43,4.36c-5.66.11-8.66,3.38-10.06,8-1.46,4.86-5.33,5.06-9,6.05-.73.2-1.49.32-1.59.34,1.57-2.81,3.34-6,5.08-9.12a8.86,8.86,0,0,1,7.89-4.94c7.23.21,10.22-4.21,12.59-9.88.52-1.25,1.74-2.18,2.51-3.34a30.86,30.86,0,0,0,2.22-3.92A15.6,15.6,0,0,0,269.51,134.61Zm-33.12,33.58c-2.07-2.13-1-3.28.32-4.57a4.31,4.31,0,0,0,1.32-2.56c.29-6.65,1.75-8.11,8.48-8.1,1,0,2.08.12,3.12.2-5,1.38-7.47,5.2-9.57,9.55A46,46,0,0,1,236.39,168.19Zm27.48-32.12h4.61c-1.57,1.9-2.66,3.11-3.63,4.41a11.84,11.84,0,0,0-2,3.19c-2.08,6.34-6,10-13,9.46.41-.43.73-1,1.22-1.24,4.67-2,6.35-5.93,6.9-10.52C258.55,136.41,258.82,136.06,263.87,136.07ZM250,137.24a4.93,4.93,0,0,1,3.34-4c3.2-1.24,6.38-2.58,9.66-3.56,2.14-.64,2.79-1.92,2.84-3.89a17.52,17.52,0,0,1,.28-3.56c1.4-5.56,3.21-6.75,8.7-5.9a32.93,32.93,0,0,1-2.86,5.34c-2.57,3.27-5.41,6.33-8.17,9.45a3.67,3.67,0,0,1-1.62,1.27c-4.19.88-4.68,4.39-5.32,7.61-.84,4.27-5.94,10.06-10.15,11.12a20.36,20.36,0,0,1-2.87.61c-4.61.47-6.41,2.4-7,7a28.52,28.52,0,0,1-1.64,5.18l-1.16-.36c.81-3.89,1.57-7.78,2.43-11.65.65-2.91,3.13-4.18,5.53-4.8C247.25,145.79,249,141.7,250,137.24Zm-88.29-2.32a21,21,0,0,0,5.49-3.92,6.46,6.46,0,0,0,1.47-4c.2-3.61-.25-7.27.19-10.83.25-2.07,1.56-4.09,2.69-6a44.09,44.09,0,0,1,3.85-4.78c2.13,5.85-1.34,9.08-4,12.69a7.74,7.74,0,0,0-1.35,4c-.18,3.55.47,7.24-2.12,10.24-1.22,1.41-3.26,2.44-3.78,4-1,2.84-3.25,3.57-5.5,4.89C158.38,138.46,159,136.31,161.7,134.92Zm.44,76.16c-1.13,1.1-1.9,2.09-.34,3.45a5.55,5.55,0,0,1,1,1.45,15.93,15.93,0,0,1,2.3,5.24c-1-1-1.91-2-2.94-2.89-1.41-1.24-2.46-3.53-4.71-.45-1.44,2-4,3.13-6.21,4.73a13.9,13.9,0,0,1,0-1.82c.26-2.16-.75-2.87-2.79-2.72-1.58.11-3.17,0-4.76,0l.05-.86c.13-.1.25-.27.39-.27,5.37-.3,5.22-.36,7.25-5.65a11.77,11.77,0,0,1,3.85-5.5c1.21-.81,3.57,0,5.41.26,1.56.19,3.09.55,5.27,1C164.57,208.48,163.42,209.84,162.14,211.08Zm193.14-24.35a13,13,0,0,0,3.23.91c.14.89.3,1.94.49,3.12-1.48.62-4.54-.85-4.11,2-1.46-.45-3.47-1.76-4.52-1.21s-1.48,2.9-2.51,5.25c0-2.17-.27-3.53.06-4.71.56-2-.57-3-2-3.2-2.86-.34-4-2-4.59-4.91,1.88-.67,3.77-1.46,5.72-2a3.1,3.1,0,0,1,2.08.61C351.21,183.91,353.17,185.45,355.28,186.73Zm36.47-20.44c-2.94-1.44-6.87-2.14-8.36-6a12.38,12.38,0,0,0-3.83-4.73c2.18,3.65,3.07,8,7.31,10.39,6.43,3.59,12.62,7.62,18.88,11.52.45.29.6,1.06,1.14,2.07H410l0,.32L405.67,181l3.49,5.35L402,184.54v9.55l-.39.18c-.77-2.77-1.55-5.53-2.32-8.3L398,186c-.54,1.57-1.07,3.15-1.54,4.51-1-5.05-.57-6.21,3.47-7.95a28.24,28.24,0,0,1-3.27-1.05c-8.63-4.12-16.47-9.2-21.1-18-2.09-4-5.66-5.27-8.34-3.42l11.11,10.44c-2.54.82-4.46,1.49-6.41,2.07-2.85.84-5.55,1.88-8.77,1.63-2.46-.19-5.07,1.23-7.57,2-2.82.93-5.86,1.07-8.3,3.31-1,1-3.17,1.08-4.78,1-4.72-.24-8.53,2.08-12.28,4.25-4,2.33-8.43,2.44-12.76,3.1-5.81.89-11.65,1.68-17.4,2.5-2.43-3.76-5-7.8-7.66-11.8a2.17,2.17,0,0,0-1.44-.9q-15.48-.37-30.94-.61c-.38,0-.76.48-1.75,1.16,5.08,0,9.46-.08,13.83,0,5.9.12,11.79.35,17.68.63a2.75,2.75,0,0,1,1.92,1c2.9,4.38,5.71,8.82,8.51,13.25,1.21,1.91,2.21,4,3.56,5.77.82,1.07-.7,2.28.95,3.47,2.75,2,5.74,1.17,8.58,1.77,1.31.27,2.64.45,4.62.79l-14.82,3.3,3.89,10.3c-4.26-.41-6.21-4.08-8.81-7-4.13,2.51-2.22,7.75-5.26,11.33-.4-3.44-.76-6.49-1.15-9.8l-7.5,1.3L284,214l10.57-6.31c-1.18-1.72-2.24-3.46-3.51-5-2.24-2.77-4.54-5.51-7-8.14-4.93-5.37-11-7.21-18.16-5.72a63.84,63.84,0,0,0-7.6,1.88c6.8,0,13.65-.88,20.69,2-6.22.48-12,.54-17.55,1.48-4.1.69-8,2.68-12,3.79s-8.17,2-12.3,2.68c-2.66.47-5.39.51-8.73.79,10-7,13.83-12,12.87-15.95-1.76,2.63-3.6,5.5-5.57,8.28-3.74,5.3-9.38,7.14-15.4,8-1.09.17-2.33-1-3.52-1.07-8.11-.29-16.24-.76-24.34-.56-12.56.32-25.09,1.38-37.65,1.62a82,82,0,0,1-16.18-1.82,12.47,12.47,0,0,1-5.93-3.45c-1.08-1.06-1.78-3.18.33-4.57a1.54,1.54,0,0,0,.64-1c.95-7.92,5-14.8,7.54-22.15.77-2.21,1.43-4.46,2.15-6.69-.83-.33-2.25-.49-2.4-1-1.79-6.3-4.29-12.66-.23-19.05.26-.41.38-1,.73-1.26,4.32-3.53,3.7-8.25,2.66-12.72-2.31-10,5.76-16.27,13.41-14.54-.53.68-.81,1.36-1.31,1.63-6.23,3.36-6.22,3.34-4.94,10,1.62,8.53,0,11.9-6.61,16.08-.92.58-2,2.2-1.76,3.1.62,3.09,1.2,6.35,3.69,8.38l-1.38,5.59,5.59-9.68c2.61-2,5.24-3.92,7.83-5.92,3.32-2.57,7.39-2.15,11.1-2.29a67.42,67.42,0,0,0,17.45-2.79c3.91-1.2,8.53-.26,12.82-.06,6.42.3,12.85,1.23,18.94-1.85a8.6,8.6,0,0,1,3.72-.82c8.63-.07,17.27,0,25.88,0a9.82,9.82,0,0,1-5.87,10.32c-6.17,2.4-8.79,6.33-8.85,13.14,0,1.33-.28,2.67-.5,4.6l-11.77-9.14c.11.66,0,1.47.32,1.73,2.61,2,5.35,3.93,8,6,1.24,1,2.84,2.05,3.28,3.41,1.86,5.67,3.52,11.43,4.9,17.25,1.19,5-2.66,7.48-6,10-2.31,1.72-4.87,3.11-7.56,4.81,2.22.64,9-1.78,10.71-4.13,2.27-3.11,5.23-6.11,3.92-10.94,7.36,1.13,12-3.92,17.73-6.35,3.81-1.62,7.67-3.17,11.62-4.42,2.4-.75,4.57-3,4.6-5.49,0-2.11-1.15-2.55-2.87-2.15-2.94.68-5.91,1.29-8.77,2.25-1.42.48-2.56,1.75-3.93,2.48s-2.66,1.59-4,1.57c-4.08-.05-7.6,1.42-11.07,3.25-2.75,1.45-4.53.87-5-.88,4.17-2,8.36-3.59,12.16-5.86,1.29-.77,2-3.09,2.29-4.83.67-3.57,2.24-5.67,5.82-6,6.73-.63,11.06-3.79,11.9-10.74.32-2.63,2.76-3.39,3.88-5.21,2.35-3.8,6.31-3.69,9.18-2.57,7.29,2.83,14.71,2,22.12,2.18,4.68.15,9.37.33,14.05.66A5.28,5.28,0,0,1,322,141c3.15,3.24,7.19,4.07,11.38,4.74a26.62,26.62,0,0,1,4.18,1.37c0,4.25-.07,8.49.06,12.74,0,.9.81,2.55,1.21,2.54,1.21,0,3,1.35,3.69-1.08.32-1.09,1.4-2,2.05-2.8l1,4.49c7.17.49,6.31.52,9.26-5.18,2.12,1,3.18.42,4-2,1-2.95,2-5.76,1.77-8.93,0-.5.8-1.41,1.38-1.56,5.68-1.53,9.53-5.56,12.24-10.24,2.11-3.64,5.22-3.19,8.18-3.8,8.18-1.68,16.48-2.87,24.53-5,4-1,7.84-2.3,11.91-3,2.54-.46,4.81-2.24,7.32-3,4.09-1.31,8.34-2.11,12.39-3.52a28.62,28.62,0,0,0,8.32-4.12c6.43-5,12.59-10.44,18.75-15.81,1.22-1.06,2-2.66,3.45-3.74-1.77,4.55-3.15,9.31-5.39,13.62-3.36,6.47-7.22,12.69-11.1,18.87-1,1.64-3,2.64-4.37,4.12-1.59,1.73-2.84,3.8-4.49,5.47-2.64,2.68-5.5,5.13-8.24,7.71-1.28,1.2-2.49,2.46-3.71,3.72-2.72,2.8-5.27,5.58-9.41,6.7-3.11.84-5.82,3.09-8.81,4.52-4.77,2.3-9.57,4.55-14.46,6.6C396.71,165.36,393.48,167.14,391.75,166.29ZM238,174.87c6.26.1,11-4.9,17.17-3.91,4.6-3.76,10.48-4.26,15.8-6.11.49,3.31-.13,4.68-3.44,4.87-5.14.28-9,2.91-13.05,5.56-1.56,1-3.7,1.1-5.49,1.82-2.55,1-5,2.31-7.52,3.37a9.58,9.58,0,0,1-2.62.3C238.56,178.61,238.3,176.8,238,174.87Zm177.44-14.65c0,.38-.06,1.08-.16,1.09-2.58.32-5.16.58-7.75.84-.06-.29-.13-.58-.19-.87l7.41-1.76c.14-.34.19-.87.44-1,2.63-1.31,5.3-2.54,7.9-3.77l6.19,4C424.66,159.31,420.4,162,415.46,160.22Zm76-88.83c-.57,5.74,1.33,11.48-4.37,15.32l2.7-1.26c1.19,6.83-.16,9.49-6.23,13.31l5.31-2.09c-.57,2.43-1,4.92-1.76,7.33a9.35,9.35,0,0,1-1.76,2.45c.39.43,1.13.87,1.12,1.3-.05,3.16-4.46,9-7.19,11-4.14,3.12-7.28,7.56-10.8,11.49-.25.28-.11.92-.13,1.17l-4.56,1.48h3.51c-2.34,3.48-4.55,6.92-6.95,10.22-.4.55-1.58.7-2.42.73-2.3.11-4.62.05-6.93.06l7.37.88c-3.4,2.6-6.29,5.83-11,5.76l1,1.19c-4.94,2-9.65,4.47-14.65,5.83a8.91,8.91,0,0,1-9.19-3l9.45-7.69c.37-2.82,2.87-3.52,4.79-4.8,2.13-2.19,4.16-4.5,6.44-6.53a6,6,0,0,1,3.49-1.22c3.8-.15,7.61.05,11.41-.13,1.25-.06,2.47-.86,3.71-1.33L447.29,134l-.43-1c1.27-1,2.89-1.74,3.77-3,4.15-5.92,8.06-12,12.16-18a6.06,6.06,0,0,1,2.61-1.81,14.23,14.23,0,0,1,3-.62h-4.2c1.55-4.16,3-8,4.43-11.86a15.22,15.22,0,0,0,.94-1.84c.66-3.12,1.62-6,4.9-7.37l-2.34.43,2.91-5.29-2.79,2.56c-.06-.55-.14-1.26-.22-2l-2.72,6.41-.71-.13c-.05-1.08-.11-2.16-.16-3.23-.55,3.91-1.92,7.36-5.38,9.65l-15.14,13.21c-.48-.74-.81-1.24-1.13-1.75.3,2.16-.52,3.36-2.62,4.31-2.37,1.07-4.13,3.56-7.3,2.72-.31-1.49-.63-3-.95-4.61v4.46L428,118.14v-5.53c-.15.1-.43.2-.45.32-.24,1.75.19,4.18-.8,5.1-2,1.86-4.76,2.9-7.83,4.63V110.17c-.18,2.62-.4,5.24-.53,7.86-.07,1.48,0,3,0,4.36l-8.82,1.33c.09-1.71.22-4,.34-6.28a7.6,7.6,0,0,0-.55,1.8c-.27,5.43-1.1,6.23-8,7.39.25-2.51.48-4.94.72-7.38A15.13,15.13,0,0,0,401,122.7c-.34,4.55-.69,4.89-6.76,4.66l9-16,.71.27c-.18,1.28-.37,2.55-.56,3.83.59-1,1.67-2,1.68-2.93,0-3.83,3.12-3.92,5.51-4.9l11-5.84c-.34,1.66-.52,2.54-.69,3.42.36-.31,1-.56,1.06-.92.85-5,5.6-4.47,9.18-6.88-.5,2.51-.85,4.25-1.19,6,.59-1.72,1.17-3.43,1.78-5.14.22-.63.3-1.49.76-1.83,2.21-1.63,4.52-3.13,6.79-4.67l-.75-.9c.72-3.73,3.42-6.42,5.41-9.47.67-1,.91-1,1.61-.22,1.91-4.91,7.5-6.84,12.17-8.12-.29,3-.59,6-.89,9.09l.72.22c.24-5.52-.17-11.48,7.71-12-.12,2.21-.23,4.34-.34,6.47a22.51,22.51,0,0,0,1.06-4.62c.07-2.21,1.32-2.8,3.1-3.18,1.22-.26,2.37-.8,3.58-1.09.14,0,.47.69.71,1.06l7.45-4.2.39.51L480,67.27a6.29,6.29,0,0,0,1.68-.91,70.78,70.78,0,0,1,7.6-7.3q-1.91,4.71-3.8,9.43c1.53-2.67,3-5.36,4.6-8,.63-1.06,1.45-2,2.22-3.07,1,8.11-1.78,14.92-6.37,21.17a5,5,0,0,0-.49,1.33C487.28,77.27,489.18,74.63,491.5,71.39Z" transform="translate(0 0)"/><path class="cls-8" d="M145.23,158.32l5.63-9.76s-.09.11-.08.11c2.63-2,5.27-3.94,7.87-5.95,3.32-2.57,7.39-2.15,11.1-2.29a67.42,67.42,0,0,0,17.45-2.79c3.91-1.2,8.53-.26,12.82-.06,6.42.3,12.85,1.23,18.94-1.85a8.6,8.6,0,0,1,3.72-.82c8.63-.07,17.27,0,25.88,0a9.82,9.82,0,0,1-5.87,10.32c-6.17,2.4-8.79,6.33-8.85,13.14,0,1.33-.28,2.67-.5,4.6l-11.77-9.14c.11.66,0,1.47.32,1.73,2.61,2,5.35,3.93,8,6,1.24,1,2.84,2.05,3.28,3.41,1.86,5.67,3.52,11.43,4.9,17.25,1.19,5-2.66,7.48-6,10-2.31,1.72-4.87,3.11-7.56,4.81,2.22.64,9-1.78,10.71-4.13,2.27-3.11,5.23-6.11,3.92-10.94,7.36,1.13,12-3.92,17.73-6.35,3.81-1.62,7.67-3.17,11.62-4.42,2.4-.75,4.57-3,4.6-5.49,0-2.11-1.15-2.55-2.87-2.15-2.94.68-5.91,1.29-8.77,2.25-1.42.48-2.56,1.75-3.93,2.48s-2.66,1.59-4,1.57c-4.08-.05-7.6,1.42-11.07,3.25-2.75,1.45-4.53.87-5-.88,4.17-2,8.36-3.59,12.16-5.86,1.29-.77,2-3.09,2.29-4.83.67-3.57,2.24-5.67,5.82-6,6.73-.63,11.06-3.79,11.9-10.74.32-2.63,2.76-3.39,3.88-5.21,2.35-3.8,6.31-3.69,9.18-2.57,7.29,2.83,14.71,2,22.12,2.18,4.68.15,9.37.33,14.05.66A5.28,5.28,0,0,1,322,141c3.15,3.24,7.19,4.07,11.38,4.74a26.62,26.62,0,0,1,4.18,1.37c0,4.25-.07,8.49.06,12.74,0,.9.81,2.55,1.21,2.54,1.21,0,3,1.35,3.69-1.08.32-1.09,1.4-2,2.05-2.8l1,4.49c7.17.49,6.31.52,9.26-5.18,2.12,1,3.18.42,4-2,1-2.95,2-5.76,1.77-8.93,0-.5.8-1.41,1.38-1.56,5.68-1.53,9.53-5.56,12.24-10.24,2.11-3.64,5.22-3.19,8.18-3.8,8.18-1.68,16.48-2.87,24.53-5,4-1,7.84-2.3,11.91-3,2.54-.46,4.81-2.24,7.32-3,4.09-1.31,8.34-2.11,12.39-3.52a28.62,28.62,0,0,0,8.32-4.12c6.43-5,12.59-10.44,18.75-15.81,1.22-1.06,2-2.66,3.45-3.74-1.77,4.55-3.15,9.31-5.39,13.62-3.36,6.47-7.22,12.69-11.1,18.87-1,1.64-3,2.64-4.37,4.12-1.59,1.73-2.84,3.8-4.49,5.47-2.64,2.68-5.5,5.13-8.24,7.71-1.28,1.2-2.49,2.46-3.71,3.72-2.72,2.8-5.27,5.58-9.41,6.7-3.11.84-5.82,3.09-8.81,4.52-4.77,2.3-9.57,4.55-14.46,6.6-2.38,1-5.61,2.78-7.34,1.93-2.94-1.44-6.87-2.14-8.36-6a12.38,12.38,0,0,0-3.83-4.73c2.18,3.65,3.07,8,7.31,10.39,6.43,3.59,12.62,7.62,18.88,11.52.45.29.6,1.06,1.14,2.07H410l0,.32L405.67,181l3.49,5.35L402,184.54v9.55l-.39.18-2.32-8.3L398,186c-.54,1.57-1.07,3.15-1.54,4.51-1-5.05-.57-6.21,3.47-7.95a28.24,28.24,0,0,1-3.27-1.05c-8.63-4.12-16.47-9.2-21.1-18-2.09-4-5.66-5.27-8.34-3.42l11.11,10.44c-2.54.82-4.46,1.49-6.41,2.07-2.85.84-5.55,1.88-8.77,1.63-2.46-.19-5.07,1.23-7.57,2-2.82.93-5.86,1.07-8.3,3.31-1,1-3.17,1.08-4.78,1-4.72-.24-8.53,2.08-12.28,4.25-4,2.33-8.43,2.44-12.76,3.1-5.81.89-11.65,1.68-17.4,2.5-2.43-3.76-5-7.8-7.66-11.8a2.17,2.17,0,0,0-1.44-.9q-15.48-.37-30.94-.61c-.38,0-.76.48-1.75,1.16,5.08,0,9.46-.08,13.83,0,5.9.12,11.79.35,17.68.63a2.75,2.75,0,0,1,1.92,1c2.9,4.38,5.71,8.82,8.51,13.25,1.21,1.91,2.21,4,3.56,5.77.82,1.07-.7,2.28.95,3.47,2.75,2,5.74,1.17,8.58,1.77,1.31.27,2.64.45,4.62.79l-14.82,3.3,3.89,10.3c-4.26-.41-6.21-4.08-8.81-7-4.13,2.51-2.22,7.75-5.26,11.33-.4-3.44-.76-6.49-1.15-9.8l-7.5,1.3L284,214l10.57-6.31c-1.18-1.72-2.24-3.46-3.51-5-2.24-2.77-4.54-5.51-7-8.14-4.93-5.37-11-7.21-18.16-5.72a63.84,63.84,0,0,0-7.6,1.88c6.8,0,13.65-.88,20.69,2-6.22.48-12,.54-17.55,1.48-4.1.69-8,2.68-12,3.79s-8.17,2-12.3,2.68c-2.66.47-5.39.51-8.73.79,10-7,13.83-12,12.87-15.95-1.76,2.63-3.6,5.5-5.57,8.28-3.74,5.3-9.38,7.14-15.4,8-1.09.17-2.33-1-3.52-1.07-8.11-.29-16.24-.76-24.34-.56-12.56.32-25.09,1.38-37.65,1.62a82,82,0,0,1-16.18-1.82,12.47,12.47,0,0,1-5.93-3.45c-1.08-1.06-1.78-3.18.33-4.57a1.54,1.54,0,0,0,.64-1c.95-7.92,5-14.8,7.54-22.15.77-2.21,1.43-4.46,2.15-6.69Zm61.59,25.45a15.94,15.94,0,0,0-2.47,1c-1.95,1.19-3.7,3.25-5.76,3.6-8.94,1.51-17.94,3.11-27,3.59-11.51.6-23.07.14-34.22.14l-2.14-4.37c-1.34,5.42-.22,6.92,4.64,6.76C156.25,194,172.63,195.7,189,193,196.06,191.77,202.88,191.3,206.82,183.77ZM147.47,174c3.41-.25,4-4.15,2-10.23C146.13,166.7,148.31,170.43,147.47,174Zm45.38-3.26,1,.68c.47-.66,1.29-1.28,1.35-2a43.27,43.27,0,0,0,0-6.54c0-.69-.8-1.33-1.23-2-.37.71-1,1.4-1.07,2.12C192.77,165.56,192.85,168.13,192.85,170.7Z" transform="translate(0 0)"/><path class="cls-9" d="M325.78,44.53C327,39,327.7,34,329.29,29.27a25.18,25.18,0,0,1,5.24-8.22,5.75,5.75,0,0,1,4.85-1.21c3.35.88,6.8,1.92,9.07,5,.53.73,1.75.94,2.65,1.39,4.27,2.14,5.07,6.24,5.77,10.35,1,5.74.11,11.37-1.18,17a4,4,0,0,1-.53,1.36c-2.92,4.26-2.36,9.27-3.13,14-.39,2.39-1.15,4.73-1.79,7.29,6.15,2.8,10.12,8.25,12.8,14.59a26.43,26.43,0,0,1,2.18,10c0,7,0,14-1.28,20.83-1.23,6.52-4,12.73-10.47,16.29-2,1.11-3.53,3.22-5.6,4.1-5.81,2.45-12,1.11-18.06,1.17a5.46,5.46,0,0,1-3.54-2c-2.39-2.82-5.68-2.69-8.85-3.41-8.32-1.9-16.75-1.48-25.16-1.79-2.64-.1-5.73-.08-7.74-1.42a10.27,10.27,0,0,1-4-6.6c-.86-8-1.17-16.1-1.32-24.16-.11-5.92,1.61-11.57,3.49-17.17,1.35-4,5-5.47,7.75-7.89.69-.59,1.46-1.88,1.25-2.56-.62-2-1.28-4.35-2.7-5.8-2.95-3-3.89-6.47-3.84-10.47.06-4.52-.1-9,0-13.57.21-6.82.54-13.66,4.81-19.5a2.46,2.46,0,0,0,.42-.78c.61-2.55,1.07-5.63,3.9-6.28,4.8-1.11,9.34.29,11.84,4.74C308,28,310,31.89,310.07,35.64c.13,5.59,3.55,6.75,7.53,7.71A76,76,0,0,0,325.78,44.53ZM329.43,57c-1.8-5.63-3-7.76-6.75-8.79-3.56-1-7.39-1-11.11-1.38-3.46-.35-5.87,1.17-7.78,4.07-1.28,1.93-1.74,4.82-5.26,4.72-1.17,0-2,1.83-.47,3.27a30.92,30.92,0,0,1,3.86,4,14.46,14.46,0,0,0,11.59,6.26,11,11,0,0,1,2.08.17c4.13.93,7.86.6,11-2.69,1.68-1.74,3.73-3.13,5.52-4.77a26.82,26.82,0,0,0,2.4-2.8,22.34,22.34,0,0,0-2.84-1.86A7.07,7.07,0,0,0,329.43,57Zm-27.15-12.1.78,0c-.15-2.68-.19-5.37-.49-8a13.28,13.28,0,0,0-1.2-4.5c-1.91-3.72-5.47-4-7.83-.84-1.37,1.85-1.64,8-.2,10.36a23.13,23.13,0,0,0,.25-3.1,14.35,14.35,0,0,1,.65-4.64c.59-1.36,1.93-2.38,2.95-3.55,1.05.93,2.75,1.69,3,2.81C301.18,37.15,301.63,41.05,302.28,44.89Zm45.63,3c.52-4.68.59-9.32-2.45-13.31-.82-1.09-2.09-2.65-3.12-2.62-3.27.09-7.14,7.29-6,10.54,3-7.2,3.67-8.12,6.6-9.11C347.11,37.37,346.78,42.8,347.91,47.85Z" transform="translate(0 0)"/><path class="cls-9" d="M370.36,75.61C368.2,75,364.56,74,361,72.87c-.52-.18-.95-1.33-1-2.06a2.08,2.08,0,0,1,1-1.59c2.71-1.34,5.65-2.27,8.21-3.84,7.46-4.6,15.73-6.85,24.1-9,5.65-1.42,11.19-3.34,16.85-4.77a21.41,21.41,0,0,1,6.74-.4c2,.14,2.76,1.4,2.8,3.65.09,5.64-.55,8.09-7.42,11.1a119.55,119.55,0,0,1-25.73,7.82C381.81,74.72,376.92,74.91,370.36,75.61Z" transform="translate(0 0)"/><path class="cls-9" d="M235.15,52.48C258.4,51.34,275,62.9,290.06,77.6c0,0-.2.4-.37.39-6.83-.36-13.76-.16-20.45-1.32-6.11-1-12-3.55-17.92-5.46-5.64-1.81-10.69-4.65-13.52-10C236.36,58.45,235.94,55.18,235.15,52.48Z" transform="translate(0 0)"/><path class="cls-10" d="M463.07,96.93l-15.14,13.21-1.13-1.75c-.44-1.84-.87-3.68-1.31-5.52l.1-21.74-.08.08c1.91-4.91,7.5-6.84,12.17-8.12-.29,3-.59,6-.89,9.09l.72.22c.24-5.52-.17-11.48,7.71-12-.12,2.21-.23,4.34-.34,6.47Q464,86.92,463.07,96.93Z" transform="translate(0 0)"/><path class="cls-10" d="M463.92,132.85,447.29,134l-.43-1c1.27-1,2.89-1.74,3.77-3,4.15-5.92,8.06-12,12.16-18a6.06,6.06,0,0,1,2.61-1.81,14.23,14.23,0,0,1,3-.62l17-3.11c.39.43,1.13.87,1.12,1.3-.05,3.16-4.46,9-7.19,11-4.14,3.12-7.28,7.56-10.8,11.49-.25.28-.11.92-.13,1.17l-4.56,1.48Z" transform="translate(0 0)"/><path class="cls-10" d="M485.39,106.45l-17,3.11h-4.2c1.55-4.16,3-8,4.43-11.86a15.22,15.22,0,0,0,.94-1.84c.66-3.12,1.62-6,4.9-7.37,4.7-1.5,8-4.82,10.91-8.57,1.89-2.65,3.79-5.29,6.11-8.53-.57,5.74,1.33,11.48-4.37,15.32l2.7-1.26c1.19,6.83-.16,9.49-6.23,13.31l5.31-2.09c-.57,2.43-1,4.92-1.76,7.33A9.35,9.35,0,0,1,485.39,106.45Z" transform="translate(0 0)"/><path class="cls-11" d="M145.23,158.32l-1.86,3.75c-.83-.33-2.25-.49-2.4-1-1.79-6.3-4.29-12.66-.23-19.05.26-.41.38-1,.73-1.26,4.32-3.53,3.7-8.25,2.66-12.72-2.31-10,5.76-16.27,13.41-14.54-.53.68-.81,1.36-1.31,1.63-6.23,3.36-6.22,3.34-4.94,10,1.62,8.53,0,11.9-6.61,16.08-.92.58-2,2.2-1.76,3.1.62,3.09,1.2,6.35,3.69,8.38Z" transform="translate(0 0)"/><path class="cls-11" d="M234,163.61c.81-3.89,1.57-7.78,2.43-11.65.65-2.91,3.13-4.18,5.53-4.8,5.27-1.37,7-5.46,8-9.92a4.93,4.93,0,0,1,3.34-4c3.2-1.24,6.38-2.58,9.66-3.56,2.14-.64,2.79-1.92,2.84-3.89a17.52,17.52,0,0,1,.28-3.56c1.4-5.56,3.21-6.75,8.7-5.9a32.93,32.93,0,0,1-2.86,5.34c-2.57,3.27-5.41,6.33-8.17,9.45a3.67,3.67,0,0,1-1.62,1.27c-4.19.88-4.68,4.39-5.32,7.61-.84,4.27-5.94,10.06-10.15,11.12a20.36,20.36,0,0,1-2.87.61c-4.61.47-6.41,2.4-7,7a28.52,28.52,0,0,1-1.64,5.18Z" transform="translate(0 0)"/><path class="cls-10" d="M445.49,102.87c.44,1.84.87,3.68,1.31,5.52.3,2.16-.52,3.36-2.62,4.31-2.37,1.07-4.13,3.56-7.3,2.72l-.95-4.61c-.09-6.39,0-12.75,2.41-18.82.33-4.32,3.38-7.22,5.56-10.56.67-1,.91-1,1.61-.22l.08-.08a10.61,10.61,0,0,0-.61,2.42c-.05,5.62,0,11.24,0,16.86A12.67,12.67,0,0,0,445.49,102.87Z" transform="translate(0 0)"/><path class="cls-10" d="M463.83,132.93h3.51c-2.34,3.48-4.55,6.92-6.95,10.22-.4.55-1.58.7-2.42.73-2.3.11-4.62.05-6.93.06l-12.18-1.87c2.13-2.19,4.16-4.5,6.44-6.53a6,6,0,0,1,3.49-1.22c3.8-.15,7.61.05,11.41-.13,1.25-.06,2.47-.86,3.71-1.33Z" transform="translate(0 0)"/><path class="cls-12" d="M346,152.52c-3.43,2.43-1.65,8.34-6.83,8.26V146.53c6.72,2.35,13,1.92,19.78-.88-.78,4.18-1.4,7.43-2.16,11.46l-3.26-4.69c-.81,1.86-1.41,3.34-2.08,4.79a11.09,11.09,0,0,1-1.67,3,2.91,2.91,0,0,1-2.47.77,3,3,0,0,1-1.26-2.21C345.91,157,346,155.06,346,152.52Z" transform="translate(0 0)"/><path class="cls-10" d="M420.86,105.25c.36-.31,1-.56,1.06-.92.85-5,5.6-4.47,9.18-6.88-.5,2.51-.85,4.25-1.19,6Q429,108,428,112.61c-.15.1-.43.2-.45.32-.24,1.75.18,4.18-.8,5.1-2,1.86-4.76,2.9-7.83,4.63V110.17Q419.91,107.71,420.86,105.25Z" transform="translate(0 0)"/><path class="cls-10" d="M485.39,79.92c-2.94,3.75-6.21,7.07-10.91,8.57l-2.34.43,2.91-5.29,10.38-15.14c1.53-2.67,3-5.36,4.6-8,.63-1.06,1.45-2,2.22-3.07,1,8.11-1.78,14.92-6.37,21.17A5,5,0,0,0,485.39,79.92Z" transform="translate(0 0)"/><path class="cls-11" d="M269.51,134.61h5.32c-2.59,3.55-5.42,7.35-8.16,11.21a15.37,15.37,0,0,0-2.1,3.8,6.08,6.08,0,0,1-5.43,4.36c-5.66.11-8.66,3.38-10.06,8-1.46,4.86-5.33,5.06-9,6.05-.73.2-1.49.32-1.59.34,1.57-2.81,3.34-6,5.08-9.12a8.86,8.86,0,0,1,7.89-4.94c7.23.21,10.22-4.21,12.59-9.88.52-1.25,1.74-2.18,2.51-3.34a30.86,30.86,0,0,0,2.22-3.92A15.6,15.6,0,0,0,269.51,134.61Z" transform="translate(0 0)"/><path class="cls-10" d="M151.23,222.61a13.9,13.9,0,0,1,0-1.82c.26-2.16-.75-2.87-2.79-2.72-1.58.11-3.17,0-4.76,0l.05-.86c.13-.1.25-.27.39-.27,5.37-.3,5.22-.36,7.25-5.65a11.77,11.77,0,0,1,3.85-5.5c1.21-.81,3.57,0,5.41.26,1.56.19,3.09.55,5.27,1-1.34,1.46-2.49,2.82-3.77,4.06-1.13,1.1-1.9,2.09-.34,3.45a5.55,5.55,0,0,1,1,1.45,15.93,15.93,0,0,1,2.3,5.24c-1-1-1.91-2-2.94-2.89-1.41-1.24-2.46-3.53-4.71-.45C156,219.86,153.41,221,151.23,222.61Z" transform="translate(0 0)"/><path class="cls-10" d="M420.86,105.25q-1,2.46-1.9,4.92c-.18,2.62-.4,5.24-.53,7.86-.07,1.48,0,3,0,4.36l-8.82,1.33c.09-1.71.22-4,.34-6.28q.31-4.89.61-9.77l11-5.84C421.21,103.49,421,104.37,420.86,105.25Z" transform="translate(0 0)"/><path class="cls-11" d="M238.87,180.77l-.85-5.9c6.26.1,11-4.9,17.17-3.91,4.6-3.76,10.48-4.26,15.8-6.11.49,3.31-.13,4.68-3.44,4.87-5.14.28-9,2.91-13.05,5.56-1.56,1-3.7,1.1-5.49,1.82-2.55,1-5,2.31-7.52,3.37A9.58,9.58,0,0,1,238.87,180.77Z" transform="translate(0 0)"/><path class="cls-10" d="M428,112.61q.93-4.59,1.87-9.17c.59-1.72,1.17-3.43,1.78-5.14.22-.63.3-1.49.76-1.83,2.21-1.63,4.52-3.13,6.79-4.67l-1.14-1.37.24,1.56c-2.38,6.07-2.5,12.43-2.41,18.82v4.46L428,118.14Z" transform="translate(0 0)"/><path class="cls-10" d="M463.07,96.93q.92-10,1.81-20a22.51,22.51,0,0,0,1.06-4.62c.07-2.21,1.32-2.8,3.1-3.18,1.22-.26,2.37-.8,3.58-1.09.14,0,.47.69.71,1.06-.81,2.31-1.79,4.58-2.4,6.94-.95,3.73-1.66,7.51-2.48,11.27C467.9,91.19,466.53,94.64,463.07,96.93Z" transform="translate(0 0)"/><path class="cls-10" d="M438.86,142.07,451,143.94l7.37.88c-3.4,2.6-6.29,5.83-11,5.76a11,11,0,0,0-2.67-.19,11.92,11.92,0,0,1-10.7-3.52C434.44,144.05,436.94,143.35,438.86,142.07Z" transform="translate(0 0)"/><path class="cls-10" d="M434.07,146.87a11.92,11.92,0,0,0,10.7,3.52,11,11,0,0,1,2.67.19l1,1.19c-4.94,2-9.65,4.47-14.65,5.83a8.91,8.91,0,0,1-9.19-3Z" transform="translate(0 0)"/><path class="cls-10" d="M485.43,68.49,475.05,83.63l-2.79,2.56c-.06-.55-.14-1.26-.22-2a22.59,22.59,0,0,0,.66-2.88c.46-5.24,1.49-10.17,6.52-13.14.32-.19.49-.62.73-.94a6.29,6.29,0,0,0,1.68-.91,70.78,70.78,0,0,1,7.6-7.3Q487.32,63.77,485.43,68.49Z" transform="translate(0 0)"/><path class="cls-10" d="M410.55,107.67q-.3,4.88-.61,9.77a7.6,7.6,0,0,0-.55,1.8c-.27,5.43-1.1,6.23-8,7.39.25-2.51.48-4.94.72-7.38l1.26-3.75c.59-1,1.67-2,1.68-2.93C405.08,108.74,408.16,108.65,410.55,107.67Z" transform="translate(0 0)"/><path class="cls-10" d="M341.32,183.94c1.88-.67,3.77-1.46,5.72-2a3.1,3.1,0,0,1,2.08.61c2.09,1.35,4.05,2.89,6.16,4.17a13,13,0,0,0,3.23.91c.14.89.3,1.94.49,3.12-1.48.62-4.54-.85-4.11,2-1.46-.45-3.47-1.76-4.52-1.21s-1.48,2.9-2.51,5.25c0-2.17-.27-3.53.06-4.71.56-2-.57-3-2-3.2C343.05,188.51,341.87,186.84,341.32,183.94Z" transform="translate(0 0)"/><path class="cls-11" d="M249.82,153.19c.41-.45.74-1.09,1.24-1.3,4.67-2,6.35-5.93,6.9-10.52.59-5,.86-5.31,5.91-5.3h4.61c-1.57,1.9-2.66,3.11-3.63,4.41a11.84,11.84,0,0,0-2,3.19c-2.09,6.37-6.07,10-13.11,9.45Z" transform="translate(0 0)"/><path class="cls-11" d="M175.39,105.47c2.13,5.85-1.34,9.08-4,12.69a7.74,7.74,0,0,0-1.35,4c-.18,3.55.47,7.24-2.12,10.24-1.22,1.41-3.26,2.44-3.78,4-1,2.84-3.25,3.57-5.5,4.89-.21-2.82.36-5,3.11-6.36a21,21,0,0,0,5.49-3.92,6.46,6.46,0,0,0,1.47-4c.2-3.61-.25-7.27.19-10.83.25-2.07,1.56-4.09,2.69-6A44.09,44.09,0,0,1,175.39,105.47Z" transform="translate(0 0)"/><path class="cls-10" d="M480,67.27c-.24.32-.41.75-.73.94-5,3-6.06,7.9-6.52,13.14a22.59,22.59,0,0,1-.66,2.88l-2.72,6.41-.71-.13c-.05-1.08-.11-2.16-.16-3.23.82-3.76,1.53-7.54,2.48-11.27.61-2.36,1.59-4.63,2.4-6.94l7.45-4.2.39.51Z" transform="translate(0 0)"/><path class="cls-8" d="M249.74,153.12c-5.05,1.36-7.56,5.21-9.68,9.59a46,46,0,0,1-3.67,5.48c-2.07-2.13-1-3.28.32-4.57a4.31,4.31,0,0,0,1.32-2.56c.29-6.65,1.75-8.11,8.48-8.1,1.1,0,2.2.14,3.3.22Z" transform="translate(0 0)"/><path class="cls-10" d="M403.36,115.5l-1.26,3.75A15.13,15.13,0,0,0,401,122.7c-.34,4.55-.69,4.89-6.76,4.66l9-16,.71.27C403.74,113,403.55,114.22,403.36,115.5Z" transform="translate(0 0)"/><path class="cls-10" d="M414.77,159.52c.14-.34.19-.87.44-1,2.63-1.31,5.3-2.54,7.9-3.77l6.19,4c-4.64.56-8.9,3.26-13.84,1.47Z" transform="translate(0 0)"/><path class="cls-10" d="M414.77,159.52l.69.7c0,.38-.06,1.08-.16,1.09-2.58.32-5.16.58-7.75.84-.06-.29-.13-.58-.19-.87Z" transform="translate(0 0)"/><path d="M206.82,183.77c-3.94,7.53-10.76,8-17.85,9.19-16.34,2.74-32.72,1.06-49.07,1.58-4.86.16-6-1.34-4.64-6.76l2.14,4.37c11.15,0,22.71.46,34.22-.14,9-.48,18-2.08,27-3.59,2.06-.35,3.81-2.41,5.76-3.6A15.94,15.94,0,0,1,206.82,183.77Z" transform="translate(0 0)"/><path d="M147.47,174c.84-3.53-1.34-7.26,2-10.23C151.49,169.81,150.88,173.71,147.47,174Z" transform="translate(0 0)"/><path d="M192.85,170.7c0-2.57-.08-5.14.05-7.7,0-.72.7-1.41,1.07-2.12.43.66,1.18,1.3,1.23,2a43.27,43.27,0,0,1,0,6.54c-.06.69-.88,1.31-1.35,2Z" transform="translate(0 0)"/><path d="M329.43,57a7.07,7.07,0,0,1,2.27.19A22.34,22.34,0,0,1,334.54,59a26.82,26.82,0,0,1-2.4,2.8c-1.79,1.64-3.84,3-5.52,4.77-3.17,3.29-6.9,3.62-11,2.69a11,11,0,0,0-2.08-.17,14.46,14.46,0,0,1-11.59-6.26,30.92,30.92,0,0,0-3.86-4c-1.55-1.44-.7-3.3.47-3.27,3.52.1,4-2.79,5.26-4.72,1.91-2.9,4.32-4.42,7.78-4.07,3.72.37,7.55.4,11.11,1.38C326.43,49.23,327.63,51.36,329.43,57Zm-26.37-2.22,24.78,3.39c-2.65-5.36-4.72-9.66-10.55-10.17C311.26,47.45,306,48.27,303.06,54.77Zm.24,7.35c.49.73.8,1.84,1.44,2.07,4.17,1.54,8.39,2.93,12.64,4.26a6.52,6.52,0,0,0,2.68,0c2.43-.31,7.42-4.2,7.68-6.38Zm28-2-33-2.95c5.5,3.68,10.92,3.69,16.23,3.43S325.5,62.75,331.29,60.12Z" transform="translate(0 0)"/><path d="M302.28,44.89c-.65-3.84-1.1-7.74-2.06-11.51-.28-1.12-2-1.88-3-2.81-1,1.17-2.36,2.19-2.95,3.55a14.35,14.35,0,0,0-.65,4.64,23.13,23.13,0,0,1-.25,3.1c-1.44-2.35-1.17-8.51.2-10.36,2.36-3.19,5.92-2.88,7.83.84a13.28,13.28,0,0,1,1.2,4.5c.3,2.66.34,5.35.49,8Z" transform="translate(0 0)"/><path d="M347.91,47.85c-1.13-5.05-.8-10.48-4.93-14.5-2.93,1-3.61,1.91-6.6,9.11-1.18-3.25,2.69-10.45,6-10.54,1,0,2.3,1.53,3.12,2.62C348.5,38.53,348.43,43.17,347.91,47.85Z" transform="translate(0 0)"/><path d="M445.49,102.87a12.67,12.67,0,0,1-.51-2.46c0-5.62-.05-11.24,0-16.86a10.61,10.61,0,0,1,.61-2.42Z" transform="translate(0 0)"/><path class="cls-12" d="M303.06,54.77c2.95-6.5,8.2-7.32,14.23-6.78,5.83.51,7.9,4.81,10.55,10.17Z" transform="translate(0 0)"/><path class="cls-12" d="M303.3,62.12h24.44c-.26,2.18-5.25,6.07-7.68,6.38a6.52,6.52,0,0,1-2.68,0c-4.25-1.33-8.47-2.72-12.64-4.26C304.1,64,303.79,62.85,303.3,62.12Z" transform="translate(0 0)"/><path class="cls-12" d="M331.29,60.12c-5.79,2.63-11.3.21-16.72.48s-10.73.25-16.23-3.43Z" transform="translate(0 0)"/><path d="M135.65,172.56" transform="translate(0 0)"/><path d="M137.2,172.73" transform="translate(0 0)"/><path d="M135.62,174.08" transform="translate(0 0)"/><path class="cls-11" d="M134.66,181.22a19.12,19.12,0,0,1-6.89-5.21,20.35,20.35,0,0,1-3.7-7.08c-.71-2.42-1.67-5.64,0-8.26a6.05,6.05,0,0,1,1-1.23,62.26,62.26,0,0,1,1.21-10.1c.52-2.46,1.23-4.85,1.33-5.2.28-.91.53-1.77.95-2.93.66-1.82,1.22-3,2.08-5.61,0-.1.07-.19.09-.25l1.23.32q.09,4-.05,8.24c0,1.28-.11,2.53-.18,3.77a27,27,0,0,1-.73,3.88,32.74,32.74,0,0,1-1.26,3.64c-.47,1.19-.9,2.16-1.21,2.84a7.9,7.9,0,0,0-.34,3.16c.14,1.34.62,2.13,1.72,4.23,2.48,4.78,2.54,4.94,3,5.34a8.44,8.44,0,0,0,5,2.12Q136.26,177.06,134.66,181.22Z" transform="translate(0 0)"/><path class="cls-13" d="M412.5,28.63c.83,0,9.85.16,15.13,7.79a18.75,18.75,0,0,1,2.76,14.22" transform="translate(0 0)"/><path class="cls-13" d="M431.1,28.63c.4,0,4.75.12,7.3,5.76a20.34,20.34,0,0,1,1.33,10.5" transform="translate(0 0)"/><path class="cls-13" d="M221.9,49.28c.11-.82,1.51-9.74,9.79-13.93a18.72,18.72,0,0,1,14.46-.78" transform="translate(0 0)"/><path class="cls-13" d="M218.18,39.82c.06-.4.71-4.77,3.46-7a4.18,4.18,0,0,1,4.64-.72" transform="translate(0 0)"/></g></svg>